<svg version="1.1" id="Layer_1" xmlns="http://www.w3.org/2000/svg" xmlns:xlink="http://www.w3.org/1999/xlink" x="0px" y="0px"
	 width="100%" viewBox="0 0 512 512" enable-background="new 0 0 512 512" xml:space="preserve">
<path fill="#000000" opacity="1.000000" stroke="none" 
	d="
M1.000000,254.000000 
	C1.000000,250.638718 1.000000,247.277420 1.356694,243.456757 
	C3.800932,241.170380 5.883131,239.337234 7.976892,237.517380 
	C20.712929,226.447342 33.484543,215.417908 46.175961,204.296951 
	C52.852161,198.446854 59.323074,192.362350 66.004257,186.518097 
	C78.454926,175.627060 91.039360,164.888824 103.476791,153.982834 
	C112.988792,145.642059 122.300682,137.073135 131.808670,128.727722 
	C144.365540,117.706245 157.077774,106.861732 169.627319,95.832024 
	C179.379654,87.260765 188.919540,78.447754 198.672424,69.877136 
	C211.223053,58.847977 223.938370,48.006317 236.495865,36.984909 
	C246.869720,27.880026 262.086334,25.805939 273.125031,33.993290 
	C285.578308,43.229824 296.913940,53.982903 308.641357,64.184776 
	C315.463898,70.119812 322.049988,76.325897 328.833344,82.307007 
	C342.238068,94.126434 355.714905,105.864037 369.143494,117.656502 
	C375.064301,122.855942 380.904999,128.146896 386.843109,133.326340 
	C402.153076,146.680283 417.504395,159.986801 432.825012,173.328583 
	C443.331116,182.477692 453.912476,191.543701 464.283630,200.843704 
	C480.600555,215.475342 496.768799,230.272766 513.000000,245.000000 
	C513.000000,247.370560 513.000000,249.741104 512.641785,252.648529 
	C508.062469,254.456924 503.862549,256.737213 499.616577,256.826416 
	C480.626129,257.225525 461.622528,257.000000 442.623688,257.000000 
	C438.511200,257.000000 434.398712,257.000000 430.000000,257.000000 
	C430.000000,275.453766 430.000000,293.419250 430.000000,311.384766 
	C430.000000,361.381744 430.101929,411.379028 429.936920,461.375458 
	C429.888489,476.052856 421.547516,484.872772 406.873016,484.956207 
	C379.875519,485.109772 352.876526,485.000000 325.878174,485.000000 
	C324.292450,485.000000 322.706696,485.000000 321.000000,485.000000 
	C321.000000,439.015564 320.803467,393.693390 321.146423,348.375305 
	C321.226196,337.837097 311.169464,327.665466 300.415771,327.840271 
	C271.591797,328.308685 242.748260,328.364410 213.927078,327.816925 
	C202.726379,327.604126 192.831665,338.557861 192.893539,349.132019 
	C193.148041,392.627930 193.000000,436.126129 193.000000,479.623505 
	C193.000000,481.376282 193.000000,483.129028 193.000000,484.999969 
	C163.179977,484.999969 134.024506,485.058502 104.870155,484.905670 
	C102.084045,484.891083 99.113510,483.965393 96.556221,482.764832 
	C86.525589,478.055756 84.054878,469.017273 84.042389,459.059418 
	C83.960236,393.563507 84.000000,328.067413 84.000000,262.571381 
	C84.000000,260.799957 84.000000,259.028503 84.000000,257.000000 
	C63.170235,257.000000 42.866211,256.930267 22.563114,257.036835 
	C15.197897,257.075500 7.881871,257.197754 1.000000,254.000000 
z"/>
<path fill="#FFFFFF" opacity="1.000000" stroke="none" 
	d="
M1.000000,254.468658 
	C7.881871,257.197754 15.197897,257.075500 22.563114,257.036835 
	C42.866211,256.930267 63.170235,257.000000 84.000000,257.000000 
	C84.000000,259.028503 84.000000,260.799957 84.000000,262.571381 
	C84.000000,328.067413 83.960236,393.563507 84.042389,459.059418 
	C84.054878,469.017273 86.525589,478.055756 96.556221,482.764832 
	C99.113510,483.965393 102.084045,484.891083 104.870155,484.905670 
	C134.024506,485.058502 163.179977,484.999969 193.000000,484.999969 
	C193.000000,483.129028 193.000000,481.376282 193.000000,479.623505 
	C193.000000,436.126129 193.148041,392.627930 192.893539,349.132019 
	C192.831665,338.557861 202.726379,327.604126 213.927078,327.816925 
	C242.748260,328.364410 271.591797,328.308685 300.415771,327.840271 
	C311.169464,327.665466 321.226196,337.837097 321.146423,348.375305 
	C320.803467,393.693390 321.000000,439.015564 321.000000,485.000000 
	C322.706696,485.000000 324.292450,485.000000 325.878174,485.000000 
	C352.876526,485.000000 379.875519,485.109772 406.873016,484.956207 
	C421.547516,484.872772 429.888489,476.052856 429.936920,461.375458 
	C430.101929,411.379028 430.000000,361.381744 430.000000,311.384766 
	C430.000000,293.419250 430.000000,275.453766 430.000000,257.000000 
	C434.398712,257.000000 438.511200,257.000000 442.623688,257.000000 
	C461.622528,257.000000 480.626129,257.225525 499.616577,256.826416 
	C503.862549,256.737213 508.062469,254.456924 512.641785,253.092682 
	C513.000000,339.629883 513.000000,426.259766 513.000000,512.944824 
	C342.442535,512.944824 171.885056,512.944824 1.000000,512.944824 
	C1.000000,426.979370 1.000000,340.958344 1.000000,254.468658 
z"/>
<path fill="#FFFFFF" opacity="1.000000" stroke="none" 
	d="
M513.000000,244.531342 
	C496.768799,230.272766 480.600555,215.475342 464.283630,200.843704 
	C453.912476,191.543701 443.331116,182.477692 432.825012,173.328583 
	C417.504395,159.986801 402.153076,146.680283 386.843109,133.326340 
	C380.904999,128.146896 375.064301,122.855942 369.143494,117.656502 
	C355.714905,105.864037 342.238068,94.126434 328.833344,82.307007 
	C322.049988,76.325897 315.463898,70.119812 308.641357,64.184776 
	C296.913940,53.982903 285.578308,43.229824 273.125031,33.993290 
	C262.086334,25.805939 246.869720,27.880026 236.495865,36.984909 
	C223.938370,48.006317 211.223053,58.847977 198.672424,69.877136 
	C188.919540,78.447754 179.379654,87.260765 169.627319,95.832024 
	C157.077774,106.861732 144.365540,117.706245 131.808670,128.727722 
	C122.300682,137.073135 112.988792,145.642059 103.476791,153.982834 
	C91.039360,164.888824 78.454926,175.627060 66.004257,186.518097 
	C59.323074,192.362350 52.852161,198.446854 46.175961,204.296951 
	C33.484543,215.417908 20.712929,226.447342 7.976892,237.517380 
	C5.883131,239.337234 3.800932,241.170380 1.356694,242.998688 
	C1.000000,162.368683 1.000000,81.737366 1.000000,1.053024 
	C171.556519,1.053024 342.113068,1.053024 513.000000,1.053024 
	C513.000000,82.020592 513.000000,163.041641 513.000000,244.531342 
z"/>
</svg>