<?xml version="1.0" standalone="no"?>
<!DOCTYPE svg PUBLIC "-//W3C//DTD SVG 20010904//EN"
 "http://www.w3.org/TR/2001/REC-SVG-20010904/DTD/svg10.dtd">
<svg version="1.0" xmlns="http://www.w3.org/2000/svg"
 width="512.000000pt" height="512.000000pt" viewBox="0 0 512.000000 512.000000"
 preserveAspectRatio="xMidYMid meet">

<g transform="translate(0.000000,512.000000) scale(0.100000,-0.100000)"
fill="#000000" stroke="none">
<path d="M2427 4800 c-328 -59 -590 -290 -686 -604 -54 -174 -53 -619 0 -792
91 -296 330 -518 639 -595 72 -18 288 -18 360 0 309 77 548 299 639 595 53
173 54 618 0 792 -85 279 -306 497 -584 579 -99 29 -279 41 -368 25z m293
-160 c211 -51 380 -188 475 -385 59 -124 65 -164 65 -455 0 -292 -6 -331 -66
-457 -71 -149 -183 -259 -339 -333 -107 -51 -170 -65 -295 -65 -125 0 -188 14
-295 65 -156 74 -268 184 -339 333 -60 126 -66 165 -66 457 0 291 6 331 65
455 145 302 474 461 795 385z"/>
<path d="M1980 2654 c-147 -31 -344 -119 -475 -212 -101 -71 -226 -191 -301
-291 -70 -92 -178 -301 -212 -411 -55 -171 -55 -178 -59 -762 -4 -537 -4 -547
17 -587 13 -27 34 -48 60 -61 39 -20 56 -20 1550 -20 1494 0 1511 0 1550 20
26 13 47 34 60 61 21 40 21 50 17 587 -4 585 -4 592 -59 762 -31 99 -129 296
-188 379 -73 102 -189 221 -290 297 -151 114 -377 216 -542 244 -63 11 -70 10
-125 -14 -32 -14 -98 -38 -148 -53 -83 -25 -104 -27 -270 -27 -170 -1 -185 1
-280 28 -55 16 -122 40 -150 53 -57 26 -66 27 -155 7z m235 -196 c102 -32 215
-48 345 -48 171 0 299 25 457 88 l52 22 88 -26 c129 -37 225 -80 321 -144 256
-167 427 -395 511 -675 47 -157 51 -218 51 -731 l0 -484 -1480 0 -1480 0 0
483 c0 512 5 584 51 733 83 269 248 496 474 650 134 91 231 136 380 174 69 17
71 17 120 -2 28 -11 77 -29 110 -40z"/>
</g>
</svg>
