<?xml version="1.0" standalone="no"?>
<!DOCTYPE svg PUBLIC "-//W3C//DTD SVG 20010904//EN"
 "http://www.w3.org/TR/2001/REC-SVG-20010904/DTD/svg10.dtd">
<svg version="1.0" xmlns="http://www.w3.org/2000/svg"
 width="512.000000pt" height="512.000000pt" viewBox="0 0 512.000000 512.000000"
 preserveAspectRatio="xMidYMid meet">

<g transform="translate(0.000000,512.000000) scale(0.100000,-0.100000)"
fill="#000000" stroke="none">
<path d="M730 4949 c-67 -13 -154 -60 -262 -141 -290 -219 -435 -408 -458
-598 -20 -168 -9 -413 31 -685 139 -948 629 -1871 1334 -2515 412 -376 868
-651 1365 -824 350 -122 762 -196 1016 -183 95 4 108 8 195 50 159 76 345 225
484 386 119 139 154 237 135 372 -19 129 -112 342 -174 396 -107 94 -499 255
-896 368 -159 45 -205 45 -295 1 -88 -42 -159 -94 -341 -252 -104 -90 -151
-125 -164 -121 -40 10 -237 135 -362 230 -230 172 -504 423 -658 602 -237 276
-492 686 -584 938 l-29 78 59 52 c235 208 349 328 400 419 25 46 29 62 28 128
-3 137 -86 551 -160 800 -19 63 -56 158 -82 210 -44 90 -51 98 -117 142 -104
69 -227 127 -303 143 -75 16 -97 17 -162 4z"/>
</g>
</svg>
